HIERARCHY
ROOT Hips
{
    OFFSET 0.000000 0.000000 0.000000
    CHANNELS 6 Xposition Yposition Zposition Zrotation Xrotation Yrotation
    JOINT Spine
    {
        OFFSET -0.000000 14.517291 0.000000
        CHANNELS 3 Zrotation Xrotation Yrotation
        JOINT Spine1
        {
            OFFSET -0.000000 37.558300 0.000000
            CHANNELS 3 Zrotation Xrotation Yrotation
            JOINT Neck
            {
                OFFSET -0.000000 37.404057 3.400369
                CHANNELS 3 Zrotation Xrotation Yrotation
                JOINT Head
                {
                    OFFSET -0.000000 24.785618 -3.540803
                    CHANNELS 3 Zrotation Xrotation Yrotation
                    End Site
                    {
                        OFFSET -0.000000 35.408028 0.000000
                    }
                }
            }
            JOINT LeftShoulder
            {
                OFFSET 6.992933 33.973492 -0.192664
                CHANNELS 3 Zrotation Xrotation Yrotation
                JOINT LeftArm
                {
                    OFFSET 21.527611 0.000000 0.000000
                    CHANNELS 3 Zrotation Xrotation Yrotation
                    JOINT LeftForeArm
                    {
                        OFFSET 56.353916 0.000000 0.000000
                        CHANNELS 3 Zrotation Xrotation Yrotation
                        JOINT LeftHand
                        {
                            OFFSET 47.774071 0.000000 0.000000
                            CHANNELS 3 Zrotation Xrotation Yrotation
                            End Site
                            {
                                OFFSET 26.556021 0.000000 0.000000
                            }
                        }
                    }
                }
            }
            JOINT RightShoulder
            {
                OFFSET -7.065357 33.973492 -0.192664
                CHANNELS 3 Zrotation Xrotation Yrotation
                JOINT RightArm
                {
                    OFFSET -21.527611 0.000000 0.000000
                    CHANNELS 3 Zrotation Xrotation Yrotation
                    JOINT RightForeArm
                    {
                        OFFSET -56.353916 0.000000 0.000000
                        CHANNELS 3 Zrotation Xrotation Yrotation
                        JOINT RightHand
                        {
                            OFFSET -47.774071 0.000000 0.000000
                            CHANNELS 3 Zrotation Xrotation Yrotation
                            End Site
                            {
                                OFFSET -26.556021 0.000000 0.000000
                            }
                        }
                    }
                }
            }
        }
    }
    JOINT LeftUpLeg
    {
        OFFSET 17.704014 0.000000 0.000000
        CHANNELS 3 Zrotation Xrotation Yrotation
        JOINT LeftLeg
        {
            OFFSET -0.000000 -81.181816 0.000000
            CHANNELS 3 Zrotation Xrotation Yrotation
            JOINT LeftFoot
            {
                OFFSET -0.000000 -62.821102 0.000000
                CHANNELS 3 Zrotation Xrotation Yrotation
                JOINT LeftToeBase
                {
                    OFFSET -0.000000 -11.507608 26.556021
                    CHANNELS 3 Zrotation Xrotation Yrotation
                    End Site
                    {
                        OFFSET -0.000000 0.000000 7.081605
                    }
                }
            }
        }
    }
    JOINT RightUpLeg
    {
        OFFSET -17.704014 0.000000 0.000000
        CHANNELS 3 Zrotation Xrotation Yrotation
        JOINT RightLeg
        {
            OFFSET -0.000000 -81.181816 0.000000
            CHANNELS 3 Zrotation Xrotation Yrotation
            JOINT RightFoot
            {
                OFFSET -0.000000 -62.821102 0.000000
                CHANNELS 3 Zrotation Xrotation Yrotation
                JOINT RightToeBase
                {
                    OFFSET -0.000000 -11.507608 26.556021
                    CHANNELS 3 Zrotation Xrotation Yrotation
                    End Site
                    {
                        OFFSET -0.000000 0.000000 7.081605
                    }
                }
            }
        }
    }
}
MOTION
Frames:    4
Frame Time:    0.008333
12.554948    153.486038    -104.756546    3.739861    -8.628648    60.475559    -1.829530    0.454768    2.028511    -4.412363    7.321204    0.955469    5.902235    1.902685    -9.488737    13.780312    5.772616    -9.398661    7.256693    6.112115    -16.753521    -26.506992    22.104174    -56.895985    -3.643051    -14.674665    -105.313148    3.621159    -19.543423    -10.024248    -1.699980    3.987843    -4.115486    29.425276    -8.420910    46.341221    -36.331467    -21.202076    45.233860    -8.898952    -8.720734    35.034889    16.926975    -10.056030    -13.688743    -12.867294    41.976318    -23.610353    6.798650    -26.955881    44.457226    0.000000    0.000000    0.000000    -20.937883    -9.062798    -20.777269    14.679594    37.818905    -18.194735    11.744999    -2.994501    -20.981956    0.000000    0.000000    0.000000    
12.636420    153.419357    -105.036583    3.649732    -8.672552    59.589806    -2.536541    1.870905    2.070462    -2.876958    4.357471    0.785919    5.061258    3.544750    -9.506601    13.780844    5.666049    -9.217772    5.434030    7.401865    -17.614489    -27.229870    21.676826    -55.157242    -4.207166    -13.014978    -105.283379    4.977730    -18.742426    -10.106008    -1.931917    5.183708    -3.517941    29.577717    -9.224238    46.418064    -35.064400    -20.519733    46.726711    -9.138319    -8.100697    35.044765    16.957001    -9.870623    -13.235834    -13.073238    42.163860    -23.284441    7.058513    -27.072611    44.674587    0.000000    0.000000    0.000000    -20.980991    -9.445457    -20.464121    14.738707    37.760311    -18.076668    11.630125    -2.735889    -20.738544    0.000000    0.000000    0.000000    
12.731451    153.349655    -105.309067    3.569245    -8.721298    58.709141    -1.695420    0.500947    1.971792    -4.402324    7.280162    0.934365    5.830880    1.730562    -9.155643    13.601226    5.958354    -9.088206    7.029835    6.143768    -16.496534    -26.590887    22.145998    -56.806252    -3.392059    -14.984436    -105.041496    4.225504    -19.554197    -9.742265    -2.027320    4.103587    -3.810777    29.660093    -8.720346    47.836330    -35.568523    -20.968048    45.883091    -8.943986    -8.603926    35.151459    16.985865    -9.669508    -12.723701    -13.220593    42.364555    -23.054852    7.307591    -27.208235    44.892288    0.000000    0.000000    0.000000    -21.015360    -9.803051    -20.125072    14.814004    37.678356    -17.946386    11.496502    -2.490947    -20.522263    0.000000    0.000000    0.000000    
12.824840    153.281372    -105.593964    3.504894    -8.749518    57.813717    -2.419807    1.914744    2.067074    -2.934281    4.342371    0.786890    5.101430    3.390530    -9.204100    13.588665    5.818035    -8.949010    5.308665    7.436406    -17.447489    -27.310150    21.731590    -55.072208    -3.792515    -13.516703    -104.959091    4.805935    -18.667540    -9.979772    -2.148900    5.285285    -3.224039    29.730799    -9.481844    47.840927    -34.360229    -20.290943    47.300926    -9.261045    -8.034877    35.195873    16.993555    -9.448685    -12.294576    -13.463533    42.511829    -22.724575    7.596652    -27.300768    45.133392    0.000000    0.000000    0.000000    -21.085957    -10.177600    -19.746744    14.943729    37.607670    -17.897127    11.339410    -2.221266    -20.280647    0.000000    0.000000    0.000000    
